<svg width="30" height="30" viewBox="0 0 30 30" fill="none" xmlns="http://www.w3.org/2000/svg">
<path d="M15 25.1998C9.36005 25.1998 4.80005 20.6398 4.80005 14.9998C4.80005 9.3598 9.36005 4.7998 15 4.7998C20.64 4.7998 25.2 9.3598 25.2 14.9998C25.2 20.6398 20.64 25.1998 15 25.1998ZM15 5.9998C10.02 5.9998 6.00005 10.0198 6.00005 14.9998C6.00005 19.9798 10.02 23.9998 15 23.9998C19.98 23.9998 24 19.9798 24 14.9998C24 10.0198 19.98 5.9998 15 5.9998Z" fill="#F46628"/>
<path d="M19.3697 9.78125L20.2181 10.6302L10.6301 20.2182L9.78174 19.3699L19.3697 9.78125Z" fill="#F46628"/>
<path d="M10.6301 9.78125L20.2181 19.3693L19.3697 20.2182L9.78174 10.6302L10.6301 9.78125Z" fill="#F46628"/>
</svg>
