<svg width="70" height="64" viewBox="0 0 70 64" fill="none" xmlns="http://www.w3.org/2000/svg">
<path d="M4.5309 52.3989C3.95565 52.3989 3.5015 52.2475 3.16846 51.9448C2.83542 51.6269 2.6689 51.2106 2.6689 50.6959C2.6689 50.6202 2.68404 50.4764 2.71431 50.2644L5.144 36.5038H12.3422C14.0528 36.5038 15.4002 36.9125 16.3841 37.73C17.3833 38.5474 17.8828 39.645 17.8828 41.0225C17.8828 41.2193 17.8525 41.5448 17.792 41.999L17.0426 46.4496C16.7096 48.4024 15.9754 49.886 14.84 50.9002C13.7047 51.8994 12.206 52.3989 10.344 52.3989H4.5309ZM10.3894 49.6286C12.3422 49.6286 13.5154 48.5235 13.909 46.3134L14.6584 42.1352C14.6887 41.999 14.7038 41.8022 14.7038 41.5448C14.7038 40.8485 14.4692 40.2959 13.9999 39.8872C13.5306 39.4784 12.9023 39.2741 12.1152 39.2741H7.77805L5.96146 49.6286H10.3894ZM22.0416 52.5806C20.8911 52.5806 19.9828 52.3384 19.3168 51.8539C18.6507 51.3695 18.3176 50.7186 18.3176 49.9011C18.3176 49.78 18.3328 49.5984 18.363 49.3561L18.522 48.4706C18.7037 47.4866 19.1729 46.7221 19.9299 46.1771C20.7019 45.617 21.6859 45.3369 22.8818 45.3369H24.2442C24.6833 45.3369 25.1525 45.3899 25.6521 45.4959C26.1668 45.6019 26.6134 45.7457 26.9918 45.9273L27.1962 44.7465C27.2113 44.686 27.2189 44.5952 27.2189 44.4741C27.2189 44.1713 27.1129 43.9291 26.901 43.7474C26.7042 43.5658 26.4242 43.4749 26.0608 43.4749H24.1307C23.6917 43.4749 23.3284 43.5733 23.0408 43.7701C22.7531 43.9669 22.579 44.2318 22.5185 44.5649H19.5211C19.7331 43.3992 20.2553 42.4985 21.0879 41.8627C21.9205 41.2118 22.9802 40.8863 24.267 40.8863H26.1971C27.4687 40.8863 28.4754 41.1739 29.2172 41.7492C29.9741 42.3244 30.3525 43.0965 30.3525 44.0653C30.3525 44.2924 30.3298 44.5195 30.2844 44.7465L28.922 52.3989H26.0608L26.3106 51.0365C25.8413 51.5209 25.3418 51.8994 24.8119 52.1719C24.2972 52.4443 23.8128 52.5806 23.3587 52.5806H22.0416ZM23.7674 50.219C24.3124 50.219 24.8346 50.0752 25.3342 49.7876C25.8338 49.5 26.2274 49.1139 26.515 48.6295L26.5831 48.2435C26.3863 48.0618 26.076 47.918 25.6521 47.812C25.2282 47.7061 24.7741 47.6531 24.2897 47.6531H22.8818C22.5034 47.6531 22.193 47.7439 21.9508 47.9256C21.7086 48.0921 21.5572 48.3343 21.4967 48.6522L21.3831 49.2426C21.3226 49.5302 21.3983 49.7649 21.6102 49.9465C21.8373 50.1282 22.1552 50.219 22.5639 50.219H23.7674Z" fill="white"/>
<path d="M36.6194 52.5806C35.1207 52.5806 33.9399 52.2021 33.0771 51.4452C32.2293 50.6883 31.8054 49.6665 31.8054 48.3797C31.8054 48.0013 31.8357 47.638 31.8963 47.2898H34.9845C34.9542 47.5623 34.9391 47.7515 34.9391 47.8575C34.9391 48.463 35.1056 48.9398 35.4386 49.288C35.7717 49.6362 36.2258 49.8103 36.8011 49.8103H39.2989C39.9649 49.8103 40.5326 49.674 41.0019 49.4016C41.4712 49.1139 41.7437 48.7355 41.8194 48.2662L41.9556 47.4714L41.9783 47.2671C41.9783 46.9643 41.8572 46.7145 41.615 46.5177C41.3728 46.3058 41.0246 46.162 40.5705 46.0863L36.5513 45.3824C34.1746 44.9736 32.9862 43.9518 32.9862 42.3169C32.9862 42.0898 33.0089 41.8627 33.0543 41.6356L33.2814 40.364C33.5085 39.0924 34.114 38.1009 35.098 37.3894C36.0971 36.6779 37.3612 36.3221 38.8901 36.3221H41.4334C42.8412 36.3221 43.9539 36.6779 44.7713 37.3894C45.5888 38.0857 45.9975 39.0319 45.9975 40.2278C45.9975 40.576 45.9673 40.9014 45.9067 41.2042H42.8185C42.8488 40.962 42.8639 40.7955 42.8639 40.7046C42.8639 40.2051 42.7201 39.8115 42.4325 39.5239C42.16 39.2362 41.7815 39.0924 41.2971 39.0924H38.7539C38.1181 39.0924 37.5807 39.2287 37.1417 39.5012C36.7027 39.7736 36.4453 40.137 36.3696 40.5911L36.2561 41.2269C36.2409 41.2875 36.2334 41.3707 36.2334 41.4767C36.2334 42.0822 36.68 42.4682 37.5731 42.6348L41.5923 43.3614C44.0144 43.8004 45.2255 44.8222 45.2255 46.4269C45.2255 46.5329 45.2103 46.7221 45.1801 46.9946L44.9303 48.4933C44.7184 49.78 44.1053 50.7867 43.091 51.5133C42.0919 52.2248 40.7976 52.5806 39.208 52.5806H36.6194ZM49.2277 36.5038H52.3613L51.2032 43.0662H58.6058L59.7639 36.5038H62.8975L60.1045 52.3989H56.9709L58.1289 45.7911H50.7263L49.5683 52.3989H46.4346L49.2277 36.5038ZM65.9309 36.5038H69.0645L66.2715 52.3989H63.1379L65.9309 36.5038Z" fill="#F46628"/>
<path d="M5.51185 60.3325H6.20295L5.8574 62.2873H5.2058L5.44275 60.9644H1.41466L1.17771 62.2873H0.526107L0.871654 60.3325H1.47389C1.88197 59.9047 2.1617 59.2827 2.31308 58.4665L2.73761 56.028H6.27206L5.51185 60.3325ZM2.29333 60.3325H4.86025L5.51185 56.6598H3.28061L2.96468 58.4665C2.83963 59.2103 2.61584 59.8323 2.29333 60.3325ZM9.97743 55.9095C10.7212 55.9095 11.2872 56.1662 11.6755 56.6796C12.0705 57.193 12.1955 57.8051 12.0507 58.5159C12.031 58.6344 12.0046 58.7364 11.9717 58.822H7.65733C7.63758 59.3222 7.7758 59.7204 8.07199 60.0166C8.37475 60.3062 8.78612 60.451 9.30608 60.451C10.063 60.451 10.6455 60.168 11.0536 59.6019L11.5669 59.9376C11.33 60.2996 10.9943 60.5826 10.5599 60.7866C10.1321 60.9841 9.68454 61.0828 9.21723 61.0828C8.45373 61.0828 7.86795 60.8261 7.45987 60.3128C7.0518 59.7994 6.91358 59.1609 7.04522 58.3974C7.17027 57.6734 7.50924 57.0778 8.06211 56.6105C8.62157 56.1432 9.26001 55.9095 9.97743 55.9095ZM7.75606 58.1901H11.4287C11.4682 57.6504 11.3497 57.2423 11.0733 56.9659C10.7969 56.6829 10.4184 56.5414 9.93794 56.5414C9.41797 56.5414 8.96054 56.6927 8.56562 56.9955C8.1773 57.2917 7.90744 57.6899 7.75606 58.1901ZM16.883 56.028L16.7744 56.6598H15.0269L14.2667 60.9644H13.6151L14.3753 56.6598H12.6278L12.7364 56.028H16.883ZM21.7492 56.028H22.4008L21.532 60.9644H20.8804L21.0285 60.1252C20.4954 60.7636 19.7813 61.0828 18.8861 61.0828C18.195 61.0828 17.6389 60.8163 17.2176 60.2831C16.7964 59.75 16.6483 59.1214 16.7734 58.3974C16.9116 57.6076 17.2505 56.9955 17.7903 56.5611C18.3366 56.1267 18.9388 55.9095 19.597 55.9095C20.0248 55.9095 20.4164 56.0115 20.7718 56.2156C21.1273 56.413 21.3905 56.6993 21.5617 57.0745L21.7492 56.028ZM19.0441 60.451C19.5838 60.451 20.0676 60.2798 20.4954 59.9376C20.9232 59.5887 21.1898 59.1478 21.2951 58.6146L21.3148 58.4962C21.407 57.8906 21.2819 57.4135 20.9397 57.0646C20.604 56.7158 20.1729 56.5414 19.6463 56.5414C19.133 56.5414 18.6591 56.7092 18.2247 57.0449C17.7968 57.3805 17.5303 57.8479 17.425 58.4468C17.3328 58.9997 17.4414 59.4736 17.7508 59.8685C18.0601 60.2568 18.4912 60.451 19.0441 60.451ZM27.8279 56.028L26.9591 60.9644H26.3074L27.0677 56.6598H24.8364L24.4514 58.8615C24.3 59.7237 24.0466 60.2996 23.6912 60.5892C23.3423 60.8788 22.8849 61.0038 22.3189 60.9644L22.4275 60.3522C22.796 60.3917 23.0889 60.3029 23.3061 60.0857C23.5299 59.8685 23.6945 59.4604 23.7998 58.8615L24.2934 56.028H27.8279ZM32.8018 56.028H33.3547L32.4859 60.9644H31.8343L32.4859 57.2127L28.8922 60.9644H28.3393L29.2081 56.028H29.8597L29.1982 59.7796L32.8018 56.028ZM40.6662 57.4102C40.5806 57.8972 40.3272 58.2428 39.906 58.4468C40.1429 58.5521 40.314 58.7101 40.4193 58.9207C40.5312 59.1313 40.5608 59.3715 40.5082 59.6414C40.4424 60.0429 40.2581 60.3654 39.9553 60.6089C39.6525 60.8459 39.2445 60.9644 38.7311 60.9644H36.332L37.2008 56.028H39.4024C39.8368 56.028 40.1725 56.1629 40.4095 56.4328C40.653 56.7026 40.7386 57.0284 40.6662 57.4102ZM40.0146 57.3904C40.0606 57.16 40.0178 56.9823 39.8862 56.8573C39.7612 56.7256 39.5604 56.6598 39.284 56.6598H37.7438L37.4773 58.1605H38.968C39.2576 58.1605 39.4946 58.0947 39.6789 57.963C39.8632 57.8248 39.9751 57.6339 40.0146 57.3904ZM39.8763 59.5427C39.9158 59.3123 39.8698 59.1313 39.7381 58.9997C39.6065 58.8615 39.3959 58.7923 39.1063 58.7923H37.3686L37.0922 60.3325H38.8397C39.1161 60.3325 39.3465 60.2634 39.5308 60.1252C39.7151 59.9804 39.8303 59.7862 39.8763 59.5427ZM46.3926 56.028H47.0442L46.1754 60.9644H45.5238L45.6719 60.1252C45.1387 60.7636 44.4246 61.0828 43.5295 61.0828C42.8384 61.0828 42.2822 60.8163 41.861 60.2831C41.4398 59.75 41.2917 59.1214 41.4167 58.3974C41.5549 57.6076 41.8939 56.9955 42.4336 56.5611C42.9799 56.1267 43.5821 55.9095 44.2403 55.9095C44.6681 55.9095 45.0598 56.0115 45.4152 56.2156C45.7706 56.413 46.0339 56.6993 46.205 57.0745L46.3926 56.028ZM43.6875 60.451C44.2272 60.451 44.7109 60.2798 45.1387 59.9376C45.5666 59.5887 45.8331 59.1478 45.9384 58.6146L45.9582 58.4962C46.0503 57.8906 45.9253 57.4135 45.583 57.0646C45.2473 56.7158 44.8162 56.5414 44.2897 56.5414C43.7763 56.5414 43.3024 56.7092 42.868 57.0449C42.4402 57.3805 42.1736 57.8479 42.0683 58.4468C41.9762 58.9997 42.0848 59.4736 42.3941 59.8685C42.7035 60.2568 43.1346 60.451 43.6875 60.451ZM54.0706 56.028L51.5629 58.4567L53.3005 60.9644H52.5897L50.9212 58.5554L50.4967 60.9644H49.845L50.2696 58.5653L47.831 60.9644H47.0609L49.7167 58.3382L48.0087 56.028H48.7492L50.3288 58.2197L50.7139 56.028H51.3655L50.9705 58.2592L53.2808 56.028H54.0706ZM58.5516 56.028H59.2032L58.3344 60.9644H57.6828L58.058 58.8121H55.2146L54.8394 60.9644H54.1878L55.0566 56.028H55.7082L55.3331 58.1802H58.1764L58.5516 56.028ZM62.2595 57.9038C62.7005 57.9038 63.0592 58.0585 63.3356 58.3678C63.6121 58.6772 63.7108 59.0523 63.6318 59.4933C63.5528 59.9409 63.3324 60.2996 62.9704 60.5694C62.6149 60.8327 62.197 60.9644 61.7165 60.9644H59.7123L60.5811 56.028H61.2327L60.9069 57.9038H62.2595ZM64.9252 56.028H65.5768L64.708 60.9644H64.0564L64.9252 56.028ZM62.5754 60.0857C62.7992 59.9211 62.9342 59.7039 62.9802 59.4341C63.0263 59.1642 62.9671 58.947 62.8025 58.7825C62.638 58.6179 62.4175 58.5357 62.141 58.5357H60.7885L60.4725 60.3325H61.8251C62.1016 60.3325 62.3517 60.2502 62.5754 60.0857Z" fill="white"/>
<path d="M60.5958 11.2339L34.7907 11.2339C34.3711 11.2339 34.0535 10.8547 34.1271 10.4417L34.3364 9.26632C34.5273 8.19429 35.4595 7.41346 36.5484 7.41346L61.2716 7.41346L60.5958 11.2339Z" fill="#F46628"/>
<path d="M57.9261 11.2339L32.1209 11.2339C31.7014 11.2339 31.3838 10.8547 31.4574 10.4417L31.6667 9.26632C31.8576 8.19429 32.7897 7.41346 33.8786 7.41346L58.6019 7.41346L57.9261 11.2339Z" fill="#F46628"/>
<path d="M20.7082 19.9683L44.1695 19.9683C44.91 19.9683 45.1089 20.9891 44.4225 21.267L35.7603 24.7753C35.4923 24.8838 35.2059 24.9396 34.9169 24.9396L19.8288 24.9396L20.7082 19.9683Z" fill="#F46628"/>
<path d="M59.0422 19.9681C58.3846 22.8753 55.8014 24.9395 52.8208 24.9395L34.6738 24.9395L34.6738 19.9681L59.0422 19.9681Z" fill="#F46628"/>
<path d="M60.6205 11.0933L59.0416 19.9722L53.0654 20.0527L54.6549 11.0933L60.6205 11.0933Z" fill="#F46628"/>
<path d="M48.1021 19.9916C51.7928 19.9916 53.3859 18.0147 53.6483 16.7732L55.5722 16.3205L55.4333 19.6546L53.473 21.3062L46.7586 21.3062C45.6686 20.868 44.4114 19.9916 48.1021 19.9916Z" fill="#F46628"/>
<path d="M53.4409 11.2341C54.5229 11.2341 54.4319 12.3796 54.3416 12.8545L55.1664 12.597L55.7717 10.5068L54.353 10.4359L52.0831 10.6487C52.0863 10.841 52.3589 11.2341 53.4409 11.2341Z" fill="#F46628"/>
<path d="M21.8452 13.7056L47.6504 13.7056C48.0699 13.7056 48.3875 14.0847 48.3139 14.4978L48.1046 15.6731C47.9137 16.7452 46.9816 17.526 45.8927 17.526L21.1694 17.526L21.8452 13.7056Z" fill="#F46628"/>
<path d="M24.515 13.7056L50.3202 13.7056C50.7397 13.7056 51.0573 14.0847 50.9837 14.4978L50.7744 15.6731C50.5835 16.7452 49.6514 17.526 48.5625 17.526L23.8392 17.526L24.515 13.7056Z" fill="#F46628"/>
<path d="M61.7329 4.97119L38.2716 4.97119C37.531 4.97119 37.3322 3.95039 38.0185 3.67241L46.6808 0.164187C46.9487 0.0556679 47.2351 -0.000121984 47.5242 -0.000121959L62.6122 -0.000118732L61.7329 4.97119Z" fill="#F46628"/>
<path d="M23.3989 4.97131C24.0564 2.06417 26.6396 0 29.6202 0L47.7672 0V4.97131L23.3989 4.97131Z" fill="#F46628"/>
<path d="M21.8206 13.8462L23.3995 4.96725L29.3757 4.88672L27.7862 13.8462H21.8206Z" fill="#F46628"/>
<path d="M34.3389 4.94786C30.6482 4.94786 29.0551 6.92478 28.7927 8.1663L26.8688 8.61894L27.0077 5.28489L28.968 3.6333L35.6825 3.6333C36.7724 4.07149 38.0296 4.94786 34.3389 4.94786Z" fill="#F46628"/>
<path d="M29.0002 13.7053C27.9182 13.7053 28.0092 12.5598 28.0994 12.085L27.2746 12.3424L26.6693 14.4326L28.088 14.5036L30.3579 14.2908C30.3548 14.0985 30.0821 13.7053 29.0002 13.7053Z" fill="#F46628"/>
</svg>
