<svg width="77" height="85" viewBox="0 0 77 85" fill="none" xmlns="http://www.w3.org/2000/svg">
<g clip-path="url(#clip0_1441_2539)">
<path d="M48.3408 40.0224C44.5151 36.1623 40.6951 32.2964 36.8612 28.4445C35.4166 26.9932 33.5302 26.887 32.1467 28.2379C30.0592 30.277 28.0034 32.3518 25.9851 34.4608C25.0137 35.4762 24.8012 36.7639 25.454 38.0056C25.8153 38.6927 25.5797 38.9801 25.1548 39.4062C21.7776 42.7926 18.4154 46.194 15.0495 49.5912C12.4739 52.1916 12.4262 55.2326 14.9771 57.8236C19.5525 62.4718 24.1454 67.1019 28.7501 71.7201C31.0229 74 34.1614 73.9839 36.4404 71.7175C37.8716 70.2946 39.2854 68.8531 40.7054 67.4183C42.9536 65.1467 45.2002 62.8742 47.432 60.6176C49.6294 61.7304 50.5916 61.5631 52.3333 59.8057C54.0164 58.1074 55.7007 56.4095 57.3818 54.7091C59.1651 52.9051 59.1687 50.9478 57.3916 49.1542C54.3757 46.1096 51.3577 43.0665 48.3408 40.0224ZM44.589 59.189C41.2365 62.6002 37.884 66.012 34.5278 69.4201C33.1351 70.8342 31.9492 70.8321 30.5508 69.4216C26.0246 64.8557 21.499 60.2893 16.9739 55.7224C15.6278 54.3642 15.6258 53.1334 16.9775 51.7659C20.5353 48.1668 24.0972 44.5712 27.6714 40.9596C33.5246 46.8676 39.2926 52.6897 45.1427 58.5951C44.9908 58.7577 44.7953 58.9788 44.589 59.189ZM49.7895 58.1467C49.3384 58.6029 49.0854 58.2166 48.8057 57.9349C46.8377 55.9528 44.8708 53.9697 42.9043 51.9855C38.0979 47.1353 33.3008 42.2753 28.475 37.4453C27.9064 36.8763 27.8571 36.5304 28.4576 35.9489C30.2403 34.2221 31.9784 32.4471 33.7037 30.6617C34.1927 30.1559 34.5222 30.0849 35.059 30.6286C41.86 37.5225 48.6815 44.3957 55.4964 51.2756C55.6458 51.4263 55.7715 51.6008 56.0055 51.8809C53.8933 54.009 51.8386 56.0755 49.7895 58.1467Z" fill="#F46628"/>
<path fill-rule="evenodd" clip-rule="evenodd" d="M31.7974 27.8802C32.5795 27.1166 33.529 26.7447 34.5047 26.7909C35.4753 26.8369 36.4211 27.2936 37.2156 28.0918C39.9403 30.8293 42.6582 33.5741 45.3757 36.3183C46.4824 37.436 47.589 38.5535 48.6959 39.6704C49.7908 40.7752 50.8859 41.8798 51.9809 42.9845C53.9031 44.9235 55.8254 46.8626 57.7467 48.8023C58.6978 49.7621 59.2238 50.8197 59.2218 51.9286C59.2199 53.0371 58.6905 54.0964 57.7374 55.0606C56.4175 56.3956 55.0957 57.7291 53.7742 59.0622C53.4122 59.4274 53.0503 59.7925 52.6884 60.1577C51.8062 61.0478 51.0346 61.6311 50.1359 61.7811C49.3254 61.9165 48.5038 61.6844 47.5346 61.2249C46.9963 61.7692 46.4572 62.3144 45.9174 62.8602C44.3027 64.493 42.6821 66.1318 41.0608 67.77C40.6881 68.1466 40.3155 68.524 39.9426 68.9016C38.897 69.9608 37.8494 71.0218 36.7929 72.0721C35.5707 73.2876 34.0935 73.9211 32.5938 73.9237C31.0935 73.9263 29.6164 73.2973 28.396 72.0732C23.7907 67.4544 19.1971 62.8235 14.6208 58.1744C13.2752 56.8076 12.5741 55.2776 12.5909 53.7056C12.6076 52.1353 13.3396 50.607 14.6942 49.2394C15.3856 48.5416 16.0769 47.8435 16.7682 47.1454C19.4421 44.4453 22.1168 41.7444 24.8008 39.0532C25.0273 38.826 25.0983 38.7295 25.1226 38.6528C25.1334 38.6185 25.1591 38.5191 25.0114 38.2383C24.2537 36.797 24.5113 35.278 25.6238 34.1151C27.6461 32.002 29.7059 29.9231 31.7974 27.8802ZM36.4404 71.7175C37.4952 70.6689 38.5404 69.6102 39.5857 68.5515C39.9588 68.1736 40.3319 67.7957 40.7054 67.4183C42.3262 65.7806 43.9462 64.1424 45.5604 62.5101C46.1852 61.8783 46.8092 61.2473 47.432 60.6176C49.6294 61.7304 50.5916 61.5631 52.3333 59.8057C52.6945 59.4413 53.0557 59.0768 53.417 58.7124C54.7392 57.3785 56.0614 56.0446 57.3818 54.7091C59.1651 52.9051 59.1687 50.9478 57.3916 49.1542C55.4725 47.2169 53.5527 45.2802 51.6328 43.3435C50.5354 42.2365 49.438 41.1295 48.3408 40.0224C47.2335 38.9051 46.1267 37.7874 45.0198 36.6696C42.3026 33.9256 39.5854 31.1815 36.8612 28.4445C35.4166 26.9932 33.5302 26.887 32.1467 28.2379C30.0592 30.277 28.0034 32.3518 25.9851 34.4608C25.0137 35.4762 24.8012 36.7639 25.454 38.0056C25.8153 38.6927 25.5797 38.9801 25.1548 39.4062C22.4716 42.0967 19.7978 44.7967 17.1241 47.4966C16.4326 48.1949 15.7411 48.8931 15.0495 49.5912C12.4739 52.1916 12.4262 55.2326 14.9771 57.8236C19.5525 62.4718 24.1454 67.1019 28.7501 71.7201C31.0229 74 34.1614 73.9839 36.4404 71.7175ZM16.9739 55.7224C21.499 60.2893 26.0246 64.8557 30.5508 69.4216C31.9492 70.8321 33.1351 70.8342 34.5278 69.4201C37.6586 66.2409 40.7862 63.0585 43.9136 59.8763L44.589 59.189C44.7286 59.0467 44.8633 58.8995 44.9829 58.7687C45.04 58.7063 45.0936 58.6477 45.1427 58.5951C39.4099 52.8081 33.7559 47.1011 28.0233 41.3148C27.906 41.1964 27.7887 41.078 27.6714 40.9596C27.5541 41.0781 27.4369 41.1966 27.3196 41.315C26.304 42.3412 25.2894 43.3661 24.2755 44.3903C21.8392 46.8513 19.4074 49.3078 16.9775 51.7659C15.6258 53.1334 15.6278 54.3642 16.9739 55.7224ZM17.333 52.1174C16.7026 52.7553 16.4641 53.2854 16.464 53.7478C16.4639 54.2099 16.7017 54.7375 17.329 55.3704C21.8541 59.9373 26.3797 64.5037 30.9058 69.0696C31.5659 69.7354 32.091 69.98 32.5415 69.9801C32.9914 69.9801 33.5148 69.7361 34.1716 69.0692C37.3032 65.8891 40.4317 62.7058 43.5602 59.5225L44.2322 58.8388M17.333 52.1174C19.7621 49.6602 22.1929 47.2047 24.6284 44.7445C25.6419 43.7207 26.6562 42.6961 27.6716 41.6702C33.291 47.3423 38.8349 52.9381 44.4516 58.608C44.3816 58.6835 44.3085 58.761 44.2322 58.8388M49.434 57.795C50.9396 56.2732 52.4484 54.7538 53.9803 53.211C54.4293 52.7589 54.8802 52.3048 55.3336 51.848C55.2617 51.7591 55.2071 51.6939 55.1413 51.6276C53.4701 49.9404 51.7983 48.2535 50.1266 46.5666C44.9818 41.3752 39.8365 36.1833 34.703 30.9797C34.5875 30.8628 34.5055 30.8023 34.451 30.7727C34.4253 30.7588 34.4095 30.7537 34.4022 30.7519C34.3985 30.751 34.3965 30.7507 34.3957 30.7507L34.3943 30.7506C34.3941 30.7506 34.3937 30.7507 34.3931 30.7508C34.3925 30.7508 34.3916 30.751 34.3905 30.7512C34.3882 30.7517 34.3841 30.7528 34.3781 30.755C34.3658 30.7595 34.3455 30.7688 34.3162 30.7876C34.2546 30.827 34.1731 30.8955 34.0632 31.0093C32.3367 32.7958 30.5941 34.5755 28.8054 36.3081C28.5236 36.581 28.5274 36.6798 28.5276 36.6836C28.5283 36.7041 28.548 36.811 28.8287 37.0919C32.473 40.7393 36.1011 44.4041 39.7283 48.0679C40.9053 49.2567 42.0821 50.4455 43.2594 51.6335C45.2258 53.6176 47.1927 55.6007 49.1605 57.5826C49.2011 57.6235 49.2408 57.6659 49.2735 57.7005C49.3082 57.7372 49.3367 57.7672 49.364 57.7939C49.3774 57.807 49.3892 57.8182 49.3998 57.8276C49.4097 57.8188 49.4212 57.8081 49.434 57.795ZM42.9043 51.9855C44.8708 53.9697 46.8377 55.9528 48.8057 57.9349C48.8371 57.9665 48.8681 57.9994 48.8991 58.0323C49.1446 58.2926 49.389 58.5517 49.7895 58.1467C51.2943 56.6256 52.8022 55.1071 54.3337 53.5648C54.8875 53.007 55.4445 52.4461 56.0055 51.8809C55.9235 51.7828 55.8548 51.6976 55.7937 51.6218C55.6805 51.4814 55.5934 51.3735 55.4964 51.2756C53.825 49.5882 52.1531 47.9012 50.4813 46.2142C45.3366 41.0229 40.1919 35.8317 35.059 30.6286C34.5222 30.0849 34.1927 30.1559 33.7037 30.6617C31.9784 32.4471 30.2403 34.2221 28.4576 35.9489C27.8571 36.5304 27.9064 36.8763 28.475 37.4453C32.1183 41.0918 35.7453 44.7554 39.3722 48.4189C40.5494 49.608 41.7266 50.797 42.9043 51.9855Z" fill="#F46628"/>
<path fill-rule="evenodd" clip-rule="evenodd" d="M62.8593 14.3754C63.4451 13.7896 64.3948 13.7896 64.9806 14.3754L71.6965 21.0913C72.2823 21.6771 72.2823 22.6269 71.6965 23.2126L55.0648 39.8444C54.479 40.4302 54.479 41.38 55.0648 41.9657C55.6505 42.5515 56.6003 42.5515 57.1861 41.9657L73.8179 25.334C75.5752 23.5766 75.5752 20.7274 73.8179 18.97L67.1019 12.2541C65.3446 10.4967 62.4953 10.4967 60.738 12.2541L52.8011 20.191L46.1083 3.62565C45.1773 1.32134 42.5545 0.208053 40.2502 1.13906L29.2575 5.5804C26.9532 6.5114 25.8399 9.13415 26.7709 11.4385L30.8343 21.4958C31.1447 22.2639 32.0189 22.635 32.787 22.3246C33.5551 22.0143 33.9262 21.1401 33.6159 20.372L29.5524 10.3146C29.2421 9.54653 29.6132 8.67228 30.3813 8.36195L41.374 3.92061C42.1421 3.61027 43.0164 3.98137 43.3267 4.74947L50.4966 22.4955L44.1062 28.8859C43.5204 29.4716 43.5204 30.4214 44.1062 31.0072C44.692 31.593 45.6417 31.593 46.2275 31.0072L62.8593 14.3754Z" fill="#F46628"/>
<path fill-rule="evenodd" clip-rule="evenodd" d="M66.7484 12.6076C65.1863 11.0455 62.6536 11.0455 61.0915 12.6076L52.6205 21.0787L45.6447 3.81296C44.8171 1.76468 42.4858 0.77509 40.4375 1.60265L29.4448 6.04399C27.3965 6.87155 26.4069 9.20288 27.2345 11.2512L31.2979 21.3085C31.5048 21.8205 32.0876 22.0679 32.5997 21.8611C33.1118 21.6542 33.3592 21.0713 33.1523 20.5593L29.0889 10.5019C28.6751 9.4778 29.1699 8.31214 30.194 7.89836L41.1867 3.45702C42.2109 3.04324 43.3765 3.53803 43.7903 4.56217L51.0841 22.615L44.4597 29.2394C44.0692 29.6299 44.0692 30.2631 44.4597 30.6536C44.8503 31.0442 45.4834 31.0442 45.874 30.6536L62.5057 14.0218C63.2868 13.2408 64.5531 13.2408 65.3342 14.0218L72.0501 20.7378C72.8311 21.5188 72.8311 22.7851 72.0501 23.5662L55.4183 40.198C55.0278 40.5885 55.0278 41.2217 55.4183 41.6122C55.8088 42.0027 56.442 42.0027 56.8325 41.6122L73.4643 24.9804C75.0264 23.4183 75.0264 20.8856 73.4643 19.3236L66.7484 12.6076ZM60.3844 11.9005C62.337 9.94791 65.5029 9.9479 67.4555 11.9005L74.1714 18.6164C76.124 20.5691 76.124 23.7349 74.1714 25.6875L57.5396 42.3193C56.7586 43.1003 55.4923 43.1003 54.7112 42.3193C53.9301 41.5382 53.9301 40.2719 54.7112 39.4909L71.343 22.8591C71.7335 22.4686 71.7335 21.8354 71.343 21.4449L64.6271 14.729C64.2365 14.3384 63.6034 14.3384 63.2128 14.729L46.5811 31.3607C45.8 32.1418 44.5337 32.1418 43.7526 31.3607C42.9716 30.5797 42.9716 29.3134 43.7526 28.5323L49.909 22.376L42.8631 4.93678C42.6562 4.42471 42.0734 4.17731 41.5613 4.3842L30.5686 8.82554C30.0565 9.03243 29.8091 9.61526 30.016 10.1273L34.0795 20.1847C34.4932 21.2088 33.9984 22.3745 32.9743 22.7882C31.9502 23.202 30.7845 22.7072 30.3707 21.6831L26.3073 11.6258C25.2729 9.06542 26.5098 6.15125 29.0702 5.11681L40.0629 0.675464C42.6232 -0.358984 45.5374 0.878002 46.5718 3.43835L52.9817 19.3033L60.3844 11.9005Z" fill="#F46628"/>
<path d="M37.4192 10.0096C36.695 10.3101 36.3571 11.1359 36.6534 11.8618C38.0272 15.2276 39.3797 18.5402 40.7454 21.8859C41.0442 22.6179 41.8948 22.9615 42.6251 22.6582C43.3492 22.3575 43.6816 21.5339 43.3853 20.808C42.012 17.4447 40.6594 14.1319 39.2927 10.7843C38.9939 10.0526 38.1492 9.70666 37.4192 10.0096Z" fill="#F46628"/>
<path fill-rule="evenodd" clip-rule="evenodd" d="M38.3537 17.3499C37.6351 15.5899 36.9157 13.8277 36.1904 12.0508C35.7916 11.0738 36.2459 9.95513 37.2275 9.54778C38.2103 9.13999 39.3507 9.60348 39.7556 10.5953L43.8482 20.619C44.246 21.5935 43.8008 22.7114 42.8168 23.12C41.8365 23.5271 40.6885 23.0696 40.2825 22.0749C39.6378 20.4956 38.9961 18.9236 38.3537 17.3499ZM36.6534 11.8618C36.3571 11.1359 36.695 10.3101 37.4192 10.0096C38.1492 9.70666 38.9939 10.0526 39.2927 10.7843L43.3853 20.808C43.6816 21.5339 43.3492 22.3575 42.6251 22.6582C41.8948 22.9615 41.0442 22.6179 40.7454 21.8859C40.1011 20.3075 39.4597 18.7364 38.8177 17.1636C38.0988 15.4027 37.379 13.6397 36.6534 11.8618Z" fill="#F46628"/>
<path fill-rule="evenodd" clip-rule="evenodd" d="M9.62981 79.0905C9.43455 79.2857 9.11797 79.2857 8.9227 79.0905L7.58077 77.7486C7.38551 77.5533 7.38551 77.2367 7.58077 77.0414L10.4019 74.2203L12.451 76.2693L9.62981 79.0905ZM14.5723 78.3906L11.7511 81.2118C10.3843 82.5786 8.16822 82.5786 6.80138 81.2118L5.45945 79.8699C4.09262 78.503 4.09262 76.287 5.45945 74.9201L8.28063 72.099L7.36779 71.1861C6.00096 69.8193 6.00095 67.6032 7.36779 66.2364L11.7503 61.8539C12.336 61.2681 13.2858 61.2681 13.8716 61.8539C14.4574 62.4397 14.4574 63.3894 13.8716 63.9752L9.48911 68.3577C9.29385 68.5529 9.29385 68.8695 9.48911 69.0648L17.6702 77.2459C17.8655 77.4412 18.1821 77.4412 18.3773 77.2459L22.7598 72.8634C23.3456 72.2776 24.2953 72.2776 24.8811 72.8634C25.4669 73.4492 25.4669 74.399 24.8811 74.9847L20.4986 79.3672C19.1318 80.7341 16.9157 80.7341 15.5489 79.3672L14.5723 78.3906Z" fill="#F46628"/>
<path fill-rule="evenodd" clip-rule="evenodd" d="M7.15494 80.8583C8.32651 82.0298 10.226 82.0298 11.3976 80.8583L14.5723 77.6835L15.9024 79.0137C17.074 80.1852 18.9735 80.1852 20.1451 79.0137L24.5276 74.6312C24.9181 74.2407 24.9181 73.6075 24.5276 73.217C24.137 72.8265 23.5039 72.8265 23.1133 73.217L18.7309 77.5995C18.3404 77.99 17.7072 77.99 17.3167 77.5995L9.13556 69.4183C8.74503 69.0278 8.74503 68.3947 9.13556 68.0041L13.518 63.6217C13.9086 63.2311 13.9086 62.598 13.518 62.2074C13.1275 61.8169 12.4943 61.8169 12.1038 62.2074L7.72134 66.5899C6.54977 67.7615 6.54977 69.661 7.72134 70.8326L8.98774 72.099L5.81301 75.2737C4.64143 76.4453 4.64143 78.3447 5.81301 79.5163L7.15494 80.8583ZM12.1047 81.5654C10.5426 83.1275 8.00993 83.1275 6.44783 81.5654L5.1059 80.2234C3.5438 78.6613 3.5438 76.1287 5.1059 74.5666L7.57352 72.099L7.01424 71.5397C5.45214 69.9776 5.45214 67.4449 7.01424 65.8828L11.3967 61.5003C12.1778 60.7193 13.4441 60.7193 14.2251 61.5003C15.0062 62.2814 15.0062 63.5477 14.2251 64.3288L9.84266 68.7112L18.0238 76.8923L22.4062 72.5099C23.1873 71.7288 24.4536 71.7288 25.2347 72.5099C26.0157 73.2909 26.0157 74.5572 25.2347 75.3383L20.8522 79.7208C19.2901 81.2829 16.7574 81.2829 15.1953 79.7208L14.5723 79.0977L12.1047 81.5654ZM9.98336 79.444C9.59284 79.8346 8.95968 79.8346 8.56915 79.444L7.22722 78.1021C6.8367 77.7116 6.8367 77.0784 7.22722 76.6879L10.4019 73.5132L13.1581 76.2693L9.98336 79.444ZM7.93433 77.395L9.27626 78.7369L11.7439 76.2693L10.4019 74.9274L7.93433 77.395Z" fill="#F46628"/>
</g>
<defs>
<clipPath id="clip0_1441_2539">
<rect width="77" height="84" fill="white" transform="translate(0 0.254395)"/>
</clipPath>
</defs>
</svg>
