<svg width="34" height="37" viewBox="0 0 34 37" fill="none" xmlns="http://www.w3.org/2000/svg">
<g clip-path="url(#clip0_1441_2601)">
<path d="M21.3454 17.6464C19.6561 15.9583 17.9693 14.2676 16.2765 12.5831C15.6386 11.9484 14.8056 11.9019 14.1947 12.4927C13.273 13.3845 12.3652 14.2918 11.474 15.2142C11.0451 15.6582 10.9513 16.2214 11.2395 16.7644C11.399 17.0649 11.295 17.1906 11.1074 17.3769C9.61618 18.8579 8.13154 20.3454 6.64531 21.8311C5.50803 22.9684 5.48696 24.2983 6.61336 25.4314C8.63367 27.4642 10.6617 29.4891 12.6949 31.5088C13.6985 32.5058 15.0844 32.4988 16.0907 31.5076C16.7226 30.8854 17.3469 30.2549 17.9739 29.6274C18.9666 28.634 19.9586 27.6402 20.9441 26.6533C21.9144 27.1399 22.3392 27.0668 23.1083 26.2982C23.8515 25.5555 24.5952 24.813 25.3375 24.0693C26.1249 23.2804 26.1265 22.4244 25.3418 21.64C24.0101 20.3085 22.6775 18.9777 21.3454 17.6464ZM19.6887 26.0285C18.2084 27.5204 16.7281 29.0124 15.2461 30.5029C14.6312 31.1213 14.1075 31.1204 13.49 30.5036C11.4915 28.5068 9.49314 26.5097 7.49504 24.5125C6.90068 23.9185 6.89977 23.3803 7.49662 22.7822C9.0676 21.2082 10.6404 19.6357 12.2186 18.0563C14.8031 20.64 17.3501 23.1862 19.9332 25.7688C19.8662 25.8399 19.7798 25.9366 19.6887 26.0285ZM21.985 25.5727C21.7859 25.7722 21.6742 25.6033 21.5507 25.4801C20.6817 24.6133 19.8131 23.746 18.9448 22.8782C16.8226 20.7571 14.7044 18.6317 12.5735 16.5194C12.3224 16.2705 12.3006 16.1193 12.5658 15.865C13.3529 15.1098 14.1204 14.3335 14.8822 13.5527C15.0982 13.3315 15.2436 13.3005 15.4807 13.5382C18.4837 16.5531 21.4958 19.559 24.505 22.5678C24.5709 22.6337 24.6265 22.71 24.7298 22.8325C23.7971 23.7632 22.8898 24.6669 21.985 25.5727Z" fill="#2B1A51"/>
<path fill-rule="evenodd" clip-rule="evenodd" d="M14.1268 12.4225C14.45 12.11 14.8366 11.9623 15.2301 11.9807C15.6225 11.9992 16.0123 12.1824 16.3454 12.5138C17.5484 13.7109 18.7483 14.9111 19.9482 16.1112C20.4369 16.6 20.9256 17.0888 21.4144 17.5773C21.8988 18.0613 22.3832 18.5453 22.8676 19.0293C23.7155 19.8764 24.5634 20.7235 25.4109 21.5709C25.8155 21.9753 26.0277 22.4089 26.0269 22.8532C26.0261 23.2973 25.8124 23.7318 25.4067 24.1384L25.3375 24.0693C26.1249 23.2804 26.1265 22.4244 25.3418 21.64C24.4945 20.7928 23.6468 19.9459 22.7991 19.0989C22.3145 18.6148 21.8299 18.1306 21.3454 17.6464C20.8564 17.1577 20.3676 16.6689 19.8788 16.18C18.6791 14.98 17.4793 13.78 16.2765 12.5831C15.6386 11.9484 14.8056 11.9019 14.1947 12.4927C13.273 13.3845 12.3652 14.2918 11.474 15.2142C11.0451 15.6582 10.9513 16.2214 11.2395 16.7644C11.399 17.0649 11.295 17.1906 11.1074 17.3769C9.92257 18.5536 8.7419 19.7344 7.56128 20.9152C7.25597 21.2205 6.95068 21.5259 6.64531 21.8311C5.50803 22.9684 5.48696 24.2983 6.61336 25.4314C8.63367 27.4642 10.6617 29.4891 12.6949 31.5088C13.6985 32.5058 15.0844 32.4988 16.0907 31.5076C16.5563 31.0491 17.0179 30.5861 17.4793 30.1232C17.6441 29.9578 17.8089 29.7925 17.9739 29.6274C18.6899 28.9109 19.4057 28.1941 20.1188 27.4798C20.3943 27.2039 20.6694 26.9283 20.9441 26.6533C21.9144 27.1399 22.3392 27.0668 23.1083 26.2982C23.2684 26.1383 23.4285 25.9783 23.5886 25.8183C24.1718 25.2356 24.7551 24.6528 25.3375 24.0693L25.4067 24.1384C24.8236 24.7225 24.2397 25.3059 23.6559 25.8892C23.4964 26.0486 23.3368 26.208 23.1773 26.3673C22.7905 26.7539 22.4734 26.984 22.1176 27.0429C21.7771 27.0992 21.4212 26.9954 20.9636 26.772C20.7052 27.0308 20.4464 27.29 20.1872 27.5496C19.4743 28.2636 18.7588 28.9802 18.043 29.6965C17.8782 29.8614 17.7136 30.0266 17.5489 30.1918C17.0873 30.6549 16.6253 31.1183 16.1592 31.5772C15.6398 32.0888 15.0179 32.3504 14.3919 32.3515C13.7659 32.3525 13.1443 32.093 12.6261 31.5781C10.5927 29.5583 8.56455 27.5333 6.54407 25.5003C5.96712 24.9199 5.67579 24.2802 5.68276 23.6318C5.68973 22.9837 5.99449 22.3438 6.57622 21.7621C6.88162 21.4568 7.18697 21.1514 7.49233 20.846C8.67289 19.6653 9.85366 18.4844 11.0386 17.3076C11.1352 17.2116 11.1895 17.1496 11.2106 17.0837C11.2289 17.0263 11.2265 16.9482 11.1532 16.8102C10.8441 16.2279 10.947 15.6191 11.4038 15.1463C12.2957 14.2232 13.2043 13.315 14.1268 12.4225ZM7.56411 24.4434C9.56221 26.4406 11.5605 28.4377 13.5591 30.4344C13.8601 30.7351 14.1218 30.8687 14.369 30.8687C14.6162 30.8688 14.8772 30.7353 15.1769 30.434C16.5599 29.043 17.9416 27.6505 19.3233 26.2581L19.6193 25.9598C19.6798 25.8987 19.737 25.8368 19.7892 25.7803C19.792 25.7773 19.7948 25.7743 19.7975 25.7713C17.2602 23.2345 14.7573 20.7323 12.2187 18.1945C11.7411 18.6724 11.264 19.1497 10.7874 19.6265C9.71189 20.7025 8.63842 21.7765 7.56578 22.8512C7.2762 23.1414 7.1469 23.402 7.14683 23.6489C7.14675 23.8957 7.27585 24.1553 7.56411 24.4434ZM12.1496 18.1254C11.672 18.6033 11.1949 19.0807 10.7182 19.5576C9.64272 20.6335 8.56925 21.7075 7.49662 22.7822C6.89977 23.3803 6.90068 23.9185 7.49504 24.5125C9.49314 26.5097 11.4915 28.5068 13.49 30.5036C14.1075 31.1204 14.6312 31.1213 15.2461 30.5029C16.6295 29.1116 18.0114 27.7189 19.3933 26.3263L19.6887 26.0285C19.7504 25.9663 19.8099 25.9019 19.8627 25.8447C19.8879 25.8174 19.9116 25.7918 19.9332 25.7688C17.3731 23.2092 14.8486 20.6854 12.2877 18.1254C12.2647 18.1023 12.2417 18.0793 12.2186 18.0563C12.1956 18.0793 12.1726 18.1024 12.1496 18.1254ZM21.9159 25.5037C22.5808 24.838 23.2471 24.1735 23.9237 23.4986C24.1471 23.2758 24.3716 23.0518 24.5976 22.8264C24.5826 22.808 24.5689 22.7912 24.5562 22.7756C24.509 22.7176 24.4754 22.6763 24.4359 22.6369C23.6979 21.8989 22.9596 21.161 22.2213 20.4232C19.9497 18.153 17.678 15.8827 15.4115 13.6072C15.2977 13.4931 15.2286 13.4679 15.1795 13.4709C15.1263 13.4741 15.0588 13.5117 14.9522 13.621C14.1901 14.402 13.4218 15.1791 12.6334 15.9355C12.504 16.0596 12.4716 16.1348 12.4737 16.1907C12.4758 16.25 12.5173 16.3262 12.6422 16.45L12.5735 16.5194C12.3224 16.2705 12.3006 16.1193 12.5658 15.865C13.3529 15.1098 14.1204 14.3335 14.8822 13.5527C15.0982 13.3315 15.2436 13.3005 15.4807 13.5382C17.7473 15.8138 20.0191 18.0842 22.2908 20.3546C23.0289 21.0923 23.7671 21.8299 24.505 22.5678C24.5478 22.6106 24.5863 22.6578 24.6363 22.7192C24.6632 22.7523 24.6936 22.7896 24.7298 22.8325C24.4823 23.0795 24.2365 23.3246 23.9922 23.5683C23.3157 24.243 22.6497 24.9073 21.985 25.5727C21.8082 25.7498 21.7003 25.6365 21.5919 25.5227C21.5782 25.5083 21.5645 25.4939 21.5507 25.4801C20.6817 24.6133 19.8131 23.746 18.9448 22.8782C18.4249 22.3586 17.9052 21.8386 17.3855 21.3187C15.7839 19.7164 14.1823 18.1142 12.5735 16.5194L12.6422 16.45C14.2512 18.045 15.8531 19.6475 17.4547 21.2497C17.9744 21.7696 18.494 22.2895 19.0139 22.8091C19.8822 23.6768 20.7507 24.5441 21.6197 25.4109C21.6362 25.4274 21.6525 25.4446 21.6674 25.4602C21.6826 25.4763 21.6967 25.4909 21.7107 25.5045C21.7393 25.5323 21.762 25.5499 21.7817 25.5593C21.7986 25.5674 21.8116 25.5688 21.8264 25.565C21.8439 25.5606 21.8735 25.5462 21.9159 25.5037Z" fill="#2B1A51"/>
<path d="M13.6986 9.53585C13.7072 9.55628 13.7157 9.57671 13.7243 9.59716C13.8612 9.92451 14.2393 10.0768 14.5655 9.93703C14.622 9.91281 14.6783 9.88867 14.7346 9.86455C14.9579 9.76885 15.069 9.51134 14.9757 9.28698C14.3641 7.81531 13.7498 6.34455 13.1403 4.87197C12.8895 4.26577 12.9835 4.0391 13.5781 3.7882C15.0471 3.16819 16.5163 2.54909 17.9865 1.93157C18.8104 1.58556 18.9821 1.65531 19.3204 2.46236C20.1949 4.54747 21.0706 6.63213 21.9428 8.71838C22.1051 9.10628 22.4277 9.53426 22.3593 9.8814C22.2906 10.2299 21.8313 10.5059 21.534 10.8046C20.9051 11.4363 20.273 12.0645 19.668 12.6667C19.4279 12.9056 19.415 13.2899 19.6383 13.5445C19.8829 13.8235 20.3124 13.8376 20.5748 13.5754C23.1276 11.0236 25.6607 8.4915 28.2006 5.95269C28.2961 5.85725 28.4535 5.84941 28.5492 5.94464C29.6084 6.99916 30.6674 8.054 31.7534 9.13601C32.0582 9.43966 32.0603 9.93255 31.7581 10.2388C29.2843 12.7454 26.84 15.2221 24.4277 17.666C24.2128 17.8838 24.1818 18.206 24.3857 18.434C24.6084 18.683 25.0175 18.7175 25.2522 18.4797C27.9737 15.7206 30.6746 12.9823 33.3571 10.2627C33.6587 9.95683 33.6571 9.46485 33.3533 9.16111C31.8673 7.67547 30.3506 6.15916 28.8172 4.62608C28.5129 4.32179 28.0198 4.32077 27.7142 4.62384C26.415 5.91238 25.1017 7.21494 23.7716 8.53413C23.5793 8.72486 23.2526 8.66394 23.1476 8.41426C22.2242 6.21661 21.3063 4.01646 20.3759 1.82174C19.8688 0.625431 18.8677 0.221678 17.6711 0.720312C16.1363 1.35979 14.603 2.00245 13.0737 2.65461C11.8514 3.17589 11.4574 4.15482 11.9668 5.38781C12.5389 6.77253 13.1208 8.1534 13.6986 9.53585Z" fill="#2B1A51"/>
<path fill-rule="evenodd" clip-rule="evenodd" d="M14.9757 9.28698C15.069 9.51134 14.9579 9.76885 14.7346 9.86455L14.5655 9.93703C14.2393 10.0768 13.8612 9.92451 13.7243 9.59716L13.6986 9.53585C13.5284 9.12858 13.3578 8.72144 13.1872 8.3143C12.7788 7.33945 12.3704 6.36459 11.9668 5.38781C11.4574 4.15482 11.8514 3.17589 13.0737 2.65461C14.603 2.00245 16.1363 1.35979 17.6711 0.720312C18.8677 0.221678 19.8688 0.625431 20.3759 1.82174C21.0221 3.3461 21.6623 4.87308 22.3025 6.40003C22.584 7.07152 22.8656 7.74301 23.1476 8.41426C23.2526 8.66394 23.5793 8.72486 23.7716 8.53413L27.7142 4.62384C28.0198 4.32077 28.5129 4.32179 28.8172 4.62608L33.3533 9.16111C33.6571 9.46485 33.6587 9.95683 33.3571 10.2627L25.2522 18.4797C25.0175 18.7175 24.6084 18.683 24.3857 18.434C24.1818 18.206 24.2128 17.8838 24.4277 17.666C26.84 15.2221 29.2843 12.7454 31.7581 10.2388C32.0603 9.93255 32.0582 9.43966 31.7534 9.13601C30.6674 8.054 29.6084 6.99916 28.5492 5.94464C28.4535 5.84941 28.2961 5.85725 28.2006 5.95269L20.5748 13.5754C20.3124 13.8376 19.8829 13.8235 19.6383 13.5445C19.415 13.2899 19.4279 12.9056 19.668 12.6667C19.7332 12.6018 19.7987 12.5366 19.8644 12.4712C20.4092 11.9291 20.9728 11.3682 21.534 10.8046C21.6184 10.7198 21.7159 10.6369 21.8138 10.5535C22.0606 10.3434 22.3101 10.131 22.3593 9.8814C22.4082 9.63342 22.2575 9.34419 22.1083 9.05778C22.0486 8.94325 21.9892 8.82918 21.9428 8.71838C21.302 7.18547 20.6592 5.65341 20.0164 4.1214C19.7844 3.56839 19.5524 3.01539 19.3204 2.46236C18.9821 1.65531 18.8104 1.58556 17.9865 1.93157C16.5163 2.54909 15.0471 3.16819 13.5781 3.7882C12.9835 4.0391 12.8895 4.26577 13.1403 4.87197C13.5306 5.81492 13.9229 6.75712 14.3151 7.6993C14.5354 8.22849 14.7558 8.75768 14.9757 9.28698ZM13.2306 4.83461C13.6209 5.77749 14.0131 6.71952 14.4053 7.66163C14.6256 8.19084 14.8459 8.72007 15.0659 9.24949C15.1807 9.52549 15.0434 9.83851 14.7731 9.95435L14.604 10.0268C14.2281 10.1879 13.7921 10.0125 13.6341 9.63487L13.6085 9.57353C13.4383 9.16642 13.2678 8.75935 13.0972 8.35227C12.6887 7.37733 12.2802 6.40212 11.8765 5.42512C11.6151 4.79234 11.5805 4.21193 11.7803 3.71769C11.9802 3.22332 12.4077 2.83245 13.0354 2.56474C14.565 1.91243 16.0986 1.26965 17.6335 0.630127C18.2493 0.37352 18.8261 0.344777 19.3188 0.544903C19.8116 0.745056 20.2048 1.16784 20.4659 1.78361C21.1121 3.30814 21.7525 4.83539 22.3927 6.36241C22.6742 7.03388 22.9557 7.7053 23.2377 8.37642C23.3151 8.56058 23.5584 8.60802 23.7028 8.46476L27.6454 4.55446C27.9892 4.21352 28.5439 4.21467 28.8863 4.55699L33.4223 9.09202C33.7641 9.43373 33.766 9.98721 33.4266 10.3313L25.3217 18.5483C25.0425 18.8314 24.5682 18.7847 24.3129 18.4991C24.0697 18.2271 24.1124 17.8464 24.3582 17.5974C26.7705 15.1535 29.2148 12.6768 31.6886 10.1701C31.953 9.9022 31.9511 9.47092 31.6845 9.20523C30.5984 8.12322 29.5395 7.06839 28.4802 6.01388C28.4266 5.96053 28.331 5.96042 28.2697 6.02179L20.6439 13.6445C20.3415 13.9467 19.8467 13.9303 19.5648 13.609C19.3075 13.3155 19.3224 12.8728 19.5991 12.5974C19.6643 12.5325 19.7299 12.4672 19.7958 12.4017C20.3405 11.8597 20.9039 11.299 21.4648 10.7357M13.2306 4.83461C13.1054 4.53207 13.0824 4.35763 13.1327 4.23359C13.1829 4.10992 13.3195 4.00338 13.6161 3.87822C15.085 3.25822 16.5542 2.63914 18.0243 2.02165C18.2295 1.93548 18.3876 1.87804 18.5154 1.85056C18.6424 1.82327 18.73 1.82767 18.7994 1.85532C18.8684 1.88286 18.9335 1.93916 19.0039 2.04455C19.0749 2.15087 19.1461 2.29916 19.2303 2.50013C19.4624 3.05357 19.6946 3.60698 19.9268 4.16038C20.5694 5.692 21.212 7.22359 21.8527 8.75606C21.895 8.85718 21.9473 8.9599 21.9993 9.05997C22.0068 9.07445 22.0143 9.08886 22.0218 9.10322C22.0666 9.18928 22.1103 9.27326 22.1489 9.35634C22.2407 9.55392 22.2911 9.72226 22.2634 9.86251C22.2356 10.0037 22.1252 10.1414 21.9657 10.2903C21.8981 10.3534 21.8252 10.4155 21.7506 10.479C21.7389 10.489 21.7271 10.499 21.7153 10.509C21.6294 10.5823 21.5422 10.6579 21.4648 10.7357" fill="#2B1A51"/>
<path d="M8.52371 33.4093C8.03744 33.8937 7.68396 33.8857 7.20199 33.3953C6.3509 32.5291 5.49914 31.6636 4.64601 30.7995C4.1577 30.305 4.15634 29.9784 4.65326 29.4807C5.13249 29.0006 5.6132 28.5219 6.09639 28.0405C6.34001 27.7978 6.34049 27.4032 6.09807 27.1592C5.85474 26.9144 5.45928 26.9144 5.21525 27.1585C4.77074 27.6032 4.33014 28.044 3.88941 28.4848C2.97447 29.3995 2.78852 30.0877 3.28197 31.0732C3.42898 31.3668 3.42306 31.721 3.22448 31.9824C2.87719 32.4397 2.53152 32.8949 2.19831 33.3336C1.96231 33.6443 1.99159 34.0814 2.26687 34.3579C2.753 34.8462 3.2301 35.3254 3.70949 35.8069C3.98542 36.0841 4.42371 36.1147 4.73542 35.8785C5.18293 35.5394 5.63906 35.1937 6.09539 34.848C6.35388 34.6521 6.70322 34.6437 6.99442 34.7865C7.85802 35.2098 8.51433 35.1502 9.19647 34.5384C9.80111 33.9958 10.3502 33.3917 10.9183 32.7873C11.1454 32.5457 11.1686 32.189 10.9441 31.9449C10.7027 31.6824 10.2726 31.6543 10.0212 31.9073C9.51502 32.4165 9.02077 32.9143 8.52371 33.4093ZM4.70186 34.2586C4.4162 34.4675 4.02782 34.4375 3.78914 34.1762C3.56642 33.9324 3.53773 33.5557 3.73278 33.2892C3.78389 33.2194 3.83525 33.1492 3.88685 33.0787C4.15472 32.7128 4.68429 32.672 5.0013 32.9963C5.31361 33.3158 5.27313 33.8408 4.91251 34.1045C4.84261 34.1557 4.7724 34.207 4.70186 34.2586Z" fill="#2B1A51"/>
<path fill-rule="evenodd" clip-rule="evenodd" d="M8.45477 33.3401C8.90906 32.8877 9.36101 32.4329 9.82206 31.969C9.86525 31.9255 9.90851 31.882 9.95186 31.8384C10.2464 31.5421 10.7407 31.5794 11.016 31.8788C11.2793 32.1651 11.2473 32.5799 10.9895 32.8542C10.9087 32.9401 10.8282 33.0261 10.7478 33.1121C10.2643 33.629 9.78352 34.1429 9.26172 34.6111C8.90999 34.9266 8.55699 35.1065 8.17395 35.1477C7.79203 35.1889 7.39303 35.0907 6.95142 34.8742C6.68762 34.7449 6.3787 34.7559 6.15439 34.9259L4.79443 35.9563C4.44375 36.2221 3.95067 36.1877 3.64025 35.8759L2.19763 34.4268C1.88795 34.1158 1.85501 33.624 2.1205 33.2745L3.14667 31.9234C3.31893 31.6965 3.32797 31.3833 3.19461 31.1169C2.94144 30.6113 2.85623 30.1687 2.96259 29.7295C3.06804 29.294 3.3582 28.8777 3.82032 28.4157L5.14615 27.0894C5.42831 26.8071 5.88581 26.8071 6.16737 27.0904C6.44769 27.3724 6.44726 27.8288 6.16534 28.1097C6.12805 28.1469 6.09077 28.184 6.0535 28.2211C5.60794 28.665 5.16455 29.1067 4.72241 29.5497C4.47765 29.7949 4.37846 29.9768 4.37787 30.1416C4.37728 30.3064 4.47506 30.4873 4.71553 30.7309C5.56873 31.5951 6.42056 32.4606 7.27168 33.3268C7.5077 33.567 7.69293 33.6679 7.86252 33.6702C8.03156 33.6724 8.2171 33.5768 8.45477 33.3401ZM3.88941 28.4848C2.97447 29.3995 2.78852 30.0877 3.28197 31.0732C3.42898 31.3668 3.42306 31.721 3.22448 31.9824L2.19831 33.3336C1.96231 33.6443 1.99159 34.0814 2.26687 34.3579L3.70949 35.8069C3.98542 36.0841 4.42371 36.1147 4.73542 35.8785L6.09539 34.848C6.35388 34.6521 6.70322 34.6437 6.99442 34.7865C7.85802 35.2098 8.51433 35.1502 9.19647 34.5384C9.71483 34.0733 10.1923 33.5629 10.676 33.0458C10.7565 32.9598 10.8372 32.8735 10.9183 32.7873C11.1454 32.5457 11.1686 32.189 10.9441 31.9449C10.7027 31.6824 10.2726 31.6543 10.0212 31.9073C9.97781 31.9509 9.93455 31.9944 9.89137 32.0379C9.43035 32.5017 8.9782 32.9567 8.52371 33.4093C8.03744 33.8937 7.68396 33.8857 7.20199 33.3953C6.3509 32.5291 5.49914 31.6636 4.64601 30.7995C4.1577 30.305 4.15634 29.9784 4.65326 29.4807C5.09553 29.0376 5.53904 28.5957 5.98461 28.1518C6.02186 28.1147 6.05911 28.0776 6.09639 28.0405C6.34001 27.7978 6.34049 27.4032 6.09807 27.1592C5.85474 26.9144 5.45928 26.9144 5.21525 27.1585L3.88941 28.4848ZM3.96569 33.1364L3.81162 33.3469C3.64533 33.5741 3.66844 33.8992 3.86127 34.1103C4.06477 34.3331 4.39686 34.3606 4.64418 34.1797L4.85483 34.0257C5.16686 33.7975 5.20267 33.3421 4.93143 33.0646C4.65713 32.784 4.19835 32.8186 3.96569 33.1364ZM3.78914 34.1762C4.02782 34.4375 4.4162 34.4675 4.70186 34.2586L4.91251 34.1045C5.27313 33.8408 5.31361 33.3158 5.0013 32.9963C4.68429 32.672 4.15472 32.7128 3.88685 33.0787L3.73278 33.2892C3.53773 33.5557 3.56642 33.9324 3.78914 34.1762Z" fill="#2B1A51"/>
<path d="M16.5267 4.51935C16.2054 4.6514 16.0555 5.01768 16.1879 5.33886C16.7934 6.80809 17.3895 8.2542 17.9915 9.71475C18.1237 10.0356 18.4967 10.1861 18.8176 10.0542C19.1389 9.92201 19.2863 9.55672 19.1539 9.23555C18.5487 7.76739 17.9525 6.32115 17.3501 4.85981C17.2179 4.53912 16.8475 4.38749 16.5267 4.51935Z" fill="#2B1A51"/>
<path fill-rule="evenodd" clip-rule="evenodd" d="M17.9011 9.75198L16.0975 5.37609C15.9449 5.00569 16.1176 4.58184 16.4895 4.42898C16.8596 4.27691 17.2874 4.45136 17.4404 4.82257L19.2442 9.19831C19.3967 9.56822 19.2271 9.99135 18.8547 10.1445C18.4851 10.2965 18.0544 10.1238 17.9011 9.75198ZM16.1879 5.33886C16.0555 5.01768 16.2054 4.6514 16.5267 4.51935C16.8475 4.38749 17.2179 4.53912 17.3501 4.85981L19.1539 9.23555C19.2863 9.55672 19.1389 9.92201 18.8176 10.0542C18.4967 10.1861 18.1237 10.0356 17.9915 9.71475L16.1879 5.33886Z" fill="#2B1A51"/>
</g>
<defs>
<clipPath id="clip0_1441_2601">
<rect width="34" height="36.7356" fill="white" transform="translate(0 0.254395)"/>
</clipPath>
</defs>
</svg>
